<svg xmlns="http://www.w3.org/2000/svg" aria-hidden="true" style="position:absolute;width:0;height:0;overflow:hidden">
  <defs>
    <symbol id="chevron" viewBox="0 0 16 32">
      <path d="m2.456 16.948 7.543 7.543 1.885-1.885-6.6-6.6 6.6-6.6-1.885-1.885-7.543 7.543a1.333 1.333 0 0 0 0 1.886z"/>
    </symbol>

   <symbol id="icon-burger" viewBox="0 0 32 32">
      <path d="M5.334 8c0-0.354 0.14-0.693 0.391-0.943s0.589-0.391 0.943-0.391h18.667c0.354 0 0.693 0.14 0.943 0.391s0.39 0.589 0.39 0.943-0.14 0.693-0.39 0.943c-0.25 0.25-0.589 0.391-0.943 0.391h-18.667c-0.354 0-0.693-0.14-0.943-0.391s-0.391-0.589-0.391-0.943zM5.334 16c0-0.354 0.14-0.693 0.391-0.943s0.589-0.39 0.943-0.39h18.667c0.354 0 0.693 0.14 0.943 0.39s0.39 0.589 0.39 0.943-0.14 0.693-0.39 0.943c-0.25 0.25-0.589 0.39-0.943 0.39h-18.667c-0.354 0-0.693-0.14-0.943-0.39s-0.391-0.589-0.391-0.943zM6.667 22.667c-0.354 0-0.693 0.14-0.943 0.39s-0.391 0.589-0.391 0.943 0.14 0.693 0.391 0.943c0.25 0.25 0.589 0.39 0.943 0.39h18.667c0.354 0 0.693-0.14 0.943-0.39s0.39-0.589 0.39-0.943-0.14-0.693-0.39-0.943c-0.25-0.25-0.589-0.39-0.943-0.39h-18.667z"/>
    </symbol>

    <symbol id="icon-close" viewBox="0 0 32 32">
      <path d="M26.281 7.613l-1.893-1.893-8.387 8.4-8.387-8.4-1.893 1.893 8.4 8.387-8.4 8.387 1.893 1.893 8.387-8.4 8.387 8.4 1.893-1.893-8.4-8.387 8.4-8.387z"/>
    </symbol>
  </defs>
</svg>
